<svg width="40" height="40" viewBox="0 0 40 40" fill="none" xmlns="http://www.w3.org/2000/svg">
<path d="M15 32.5C15 35.2625 12.2 37.5 8.75 37.5C5.3 37.5 2.5 35.2625 2.5 32.5C2.5 29.74 5.3 27.5 8.75 27.5C12.2 27.5 15 29.74 15 32.5ZM37.5 27.5C37.5 30.2625 34.7 32.5 31.25 32.5C27.8 32.5 25 30.2625 25 27.5C25 24.7375 27.8 22.5 31.25 22.5C34.7 22.5 37.5 24.7375 37.5 27.5Z" fill="#CF052D"/>
<path fill-rule="evenodd" clip-rule="evenodd" d="M35 27.5V5H37.5V27.5H35ZM15 7.5V32.5H12.5V7.5H15Z" fill="#CF052D"/>
<path d="M12.5 7.26248C12.5 6.64272 12.7302 6.04504 13.1459 5.58541C13.5617 5.12578 14.1333 4.83696 14.75 4.77498L34.75 2.77498C35.0976 2.74004 35.4487 2.77836 35.7807 2.88746C36.1126 2.99657 36.4179 3.17403 36.6771 3.40841C36.9362 3.64279 37.1433 3.92888 37.285 4.24823C37.4268 4.56758 37.5 4.91309 37.5 5.26248V7.49998L12.5 9.99998V7.26248Z" fill="#CF052D"/>
</svg>
