<svg width="216" height="80" viewBox="0 0 216 80" fill="none" xmlns="http://www.w3.org/2000/svg">
<path d="M60.352 55.18C59.464 55.18 58.828 54.988 58.444 54.604C58.06 54.196 57.868 53.44 57.868 52.336C57.868 51.592 57.94 50.644 58.084 49.492C58.252 48.316 58.516 46.708 58.876 44.668C59.5 40.9 59.992 37.636 60.352 34.876C60.568 33.148 60.676 31.708 60.676 30.556C60.676 29.476 60.28 28.936 59.488 28.936C58.864 28.936 58.108 29.26 57.22 29.908C56.356 30.532 55.396 31.54 54.34 32.932C54.004 33.388 53.632 33.616 53.224 33.616C52.888 33.616 52.588 33.46 52.324 33.148C52.084 32.812 51.964 32.44 51.964 32.032C51.964 31.648 52.036 31.264 52.18 30.88C52.348 30.472 52.612 30.016 52.972 29.512C54.124 27.904 55.408 26.668 56.824 25.804C58.24 24.916 59.656 24.472 61.072 24.472C62.392 24.472 63.4 24.892 64.096 25.732C64.816 26.572 65.176 27.796 65.176 29.404C65.176 30.052 65.116 30.82 64.996 31.708C64.876 32.572 64.768 33.28 64.672 33.832C64.576 34.384 64.504 34.768 64.456 34.984C65.824 31.072 67.36 28.348 69.064 26.812C70.768 25.252 72.64 24.472 74.68 24.472C76.24 24.472 77.464 25.024 78.352 26.128C79.264 27.232 79.72 28.792 79.72 30.808C79.72 31.6 79.612 32.584 79.396 33.76C80.596 30.448 82 28.072 83.608 26.632C85.216 25.192 87.064 24.472 89.152 24.472C90.832 24.472 92.116 25.012 93.004 26.092C93.916 27.172 94.372 28.684 94.372 30.628C94.372 31.684 94.216 32.968 93.904 34.48L91.708 44.776C91.468 45.976 91.348 47.008 91.348 47.872C91.348 48.88 91.576 49.636 92.032 50.14C92.512 50.644 93.172 50.896 94.012 50.896C94.804 50.896 95.572 50.632 96.316 50.104C97.084 49.576 97.984 48.7 99.016 47.476C99.304 47.14 99.628 46.972 99.988 46.972C100.3 46.972 100.54 47.116 100.708 47.404C100.9 47.692 100.996 48.088 100.996 48.592C100.996 49.528 100.768 50.272 100.312 50.824C99.064 52.336 97.828 53.44 96.604 54.136C95.38 54.832 94.096 55.18 92.752 55.18C90.712 55.18 89.116 54.58 87.964 53.38C86.812 52.156 86.236 50.524 86.236 48.484C86.236 47.068 86.524 45.016 87.1 42.328L88.54 35.74C88.588 35.524 88.672 35.14 88.792 34.588C88.912 34.036 89.008 33.52 89.08 33.04C89.152 32.536 89.188 32.044 89.188 31.564C89.188 30.724 89.02 30.1 88.684 29.692C88.372 29.26 87.916 29.044 87.316 29.044C86.188 29.044 85 29.776 83.752 31.24C82.528 32.68 81.352 35.08 80.224 38.44C79.12 41.8 78.22 46.168 77.524 51.544C77.356 52.984 77.056 53.956 76.624 54.46C76.216 54.94 75.544 55.18 74.608 55.18C73.792 55.18 73.192 54.988 72.808 54.604C72.448 54.22 72.268 53.5 72.268 52.444C72.268 51.46 72.4 50.176 72.664 48.592C72.928 46.984 73.264 45.1 73.672 42.94C74.776 37.132 75.328 33.388 75.328 31.708C75.328 30.796 75.148 30.124 74.788 29.692C74.452 29.26 73.936 29.044 73.24 29.044C72.064 29.044 70.852 29.716 69.604 31.06C68.356 32.38 67.132 34.744 65.932 38.152C64.756 41.536 63.772 46.12 62.98 51.904C62.812 53.128 62.56 53.98 62.224 54.46C61.912 54.94 61.288 55.18 60.352 55.18ZM114.151 46.972C114.463 46.972 114.703 47.116 114.871 47.404C115.063 47.692 115.159 48.088 115.159 48.592C115.159 49.552 114.931 50.296 114.475 50.824C113.587 51.904 112.327 52.9 110.695 53.812C109.087 54.724 107.359 55.18 105.511 55.18C102.991 55.18 101.035 54.496 99.6432 53.128C98.2512 51.76 97.5552 49.888 97.5552 47.512C97.5552 45.856 97.9032 44.32 98.5992 42.904C99.2952 41.464 100.255 40.324 101.479 39.484C102.727 38.644 104.131 38.224 105.691 38.224C107.083 38.224 108.199 38.644 109.039 39.484C109.879 40.3 110.299 41.416 110.299 42.832C110.299 44.488 109.699 45.916 108.499 47.116C107.323 48.292 105.319 49.228 102.487 49.924C103.087 51.028 104.227 51.58 105.907 51.58C106.987 51.58 108.211 51.208 109.579 50.464C110.971 49.696 112.171 48.7 113.179 47.476C113.467 47.14 113.791 46.972 114.151 46.972ZM105.079 41.752C104.191 41.752 103.435 42.268 102.811 43.3C102.211 44.332 101.911 45.58 101.911 47.044V47.116C103.327 46.78 104.443 46.276 105.259 45.604C106.075 44.932 106.483 44.152 106.483 43.264C106.483 42.808 106.351 42.448 106.087 42.184C105.847 41.896 105.511 41.752 105.079 41.752ZM115.9 55.18C114.82 55.18 113.932 54.688 113.236 53.704C112.564 52.696 112.228 51.448 112.228 49.96C112.228 48.16 112.348 46.516 112.588 45.028C112.828 43.516 113.224 41.92 113.776 40.24C114.016 39.52 114.352 39.004 114.784 38.692C115.216 38.38 115.9 38.224 116.836 38.224C117.364 38.224 117.724 38.308 117.916 38.476C118.132 38.644 118.24 38.896 118.24 39.232C118.24 39.424 118.108 40.072 117.844 41.176C117.604 42.064 117.412 42.868 117.268 43.588C116.788 46.108 116.548 47.788 116.548 48.628C116.548 49.132 116.608 49.492 116.728 49.708C116.848 49.9 117.04 49.996 117.304 49.996C117.664 49.996 118.108 49.636 118.636 48.916C119.188 48.196 119.764 47.104 120.364 45.64C120.988 44.176 121.588 42.376 122.164 40.24C122.356 39.52 122.644 39.004 123.028 38.692C123.436 38.38 124.036 38.224 124.828 38.224C125.38 38.224 125.764 38.296 125.98 38.44C126.196 38.56 126.304 38.8 126.304 39.16C126.304 39.76 126.004 41.404 125.404 44.092C124.732 47.164 124.396 49.06 124.396 49.78C124.396 50.236 124.492 50.596 124.684 50.86C124.876 51.1 125.128 51.22 125.44 51.22C125.92 51.22 126.484 50.932 127.132 50.356C127.804 49.756 128.692 48.796 129.796 47.476C130.084 47.14 130.408 46.972 130.768 46.972C131.08 46.972 131.32 47.116 131.488 47.404C131.68 47.692 131.776 48.088 131.776 48.592C131.776 49.552 131.548 50.296 131.092 50.824C130.06 52.096 128.944 53.14 127.744 53.956C126.568 54.772 125.224 55.18 123.712 55.18C122.56 55.18 121.708 54.736 121.156 53.848C120.628 52.96 120.364 51.712 120.364 50.104C119.956 51.736 119.344 52.996 118.528 53.884C117.712 54.748 116.836 55.18 115.9 55.18ZM137.929 55.18C136.273 55.18 134.773 54.772 133.429 53.956C132.109 53.14 131.065 51.964 130.297 50.428C129.529 48.868 129.145 47.032 129.145 44.92C129.145 41.272 129.925 37.9 131.485 34.804C133.045 31.684 135.349 29.188 138.397 27.316C141.445 25.42 145.105 24.472 149.377 24.472C150.481 24.472 151.657 24.556 152.905 24.724C154.177 24.892 155.329 25.144 156.361 25.48C157.033 25.672 157.369 26.152 157.369 26.92C157.369 27.544 157.129 28.132 156.649 28.684C156.193 29.236 155.653 29.512 155.029 29.512C154.837 29.512 154.693 29.5 154.597 29.476C153.349 29.188 152.281 28.984 151.393 28.864C150.505 28.72 149.569 28.648 148.585 28.648C145.537 28.648 142.945 29.392 140.809 30.88C138.673 32.344 137.077 34.288 136.021 36.712C134.965 39.136 134.437 41.752 134.437 44.56C134.437 46.6 134.833 48.184 135.625 49.312C136.441 50.416 137.497 50.968 138.793 50.968C140.257 50.968 141.541 50.368 142.645 49.168C143.749 47.968 144.757 46.024 145.669 43.336C146.581 40.648 147.481 37 148.369 32.392C148.513 31.72 148.801 31.264 149.233 31.024C149.665 30.784 150.241 30.664 150.961 30.664C152.665 30.664 153.517 31.216 153.517 32.32C153.517 32.512 153.481 32.752 153.409 33.04C152.785 35.368 152.209 37.948 151.681 40.78C151.177 43.588 150.925 45.724 150.925 47.188C150.925 48.484 151.117 49.432 151.501 50.032C151.885 50.608 152.473 50.896 153.265 50.896C154.033 50.896 154.765 50.644 155.461 50.14C156.157 49.612 157.033 48.724 158.089 47.476C158.377 47.14 158.701 46.972 159.061 46.972C159.373 46.972 159.613 47.116 159.781 47.404C159.973 47.692 160.069 48.088 160.069 48.592C160.069 49.528 159.841 50.272 159.385 50.824C158.209 52.24 157.057 53.32 155.929 54.064C154.801 54.808 153.421 55.18 151.789 55.18C150.109 55.18 148.753 54.7 147.721 53.74C146.689 52.756 146.041 51.376 145.777 49.6C144.001 53.32 141.385 55.18 137.929 55.18ZM175.122 46.972C175.434 46.972 175.674 47.116 175.842 47.404C176.034 47.692 176.13 48.088 176.13 48.592C176.13 49.48 175.902 50.224 175.446 50.824C174.318 52.288 172.914 53.44 171.234 54.28C169.578 55.12 167.706 55.54 165.618 55.54C163.986 55.54 162.57 55.3 161.37 54.82C160.17 54.316 159.246 53.644 158.598 52.804C157.974 51.94 157.662 50.98 157.662 49.924C157.662 48.34 158.298 46.936 159.57 45.712C160.842 44.488 162.666 43.312 165.042 42.184L159.138 42.328C158.61 42.352 158.202 42.172 157.914 41.788C157.65 41.38 157.518 40.9 157.518 40.348C157.518 39.772 157.65 39.268 157.914 38.836C158.202 38.38 158.586 38.152 159.066 38.152C160.17 38.152 161.646 38.236 163.494 38.404C163.878 38.428 164.574 38.476 165.582 38.548C166.614 38.62 167.478 38.656 168.174 38.656C168.414 38.656 168.87 38.56 169.542 38.368C169.662 38.344 169.89 38.284 170.226 38.188C170.586 38.092 170.886 38.044 171.126 38.044C171.51 38.044 171.822 38.212 172.062 38.548C172.326 38.884 172.458 39.4 172.458 40.096C172.458 40.864 172.278 41.464 171.918 41.896C171.558 42.328 170.994 42.712 170.226 43.048C168.042 43.984 166.23 44.992 164.79 46.072C163.35 47.128 162.63 48.184 162.63 49.24C162.63 49.912 162.942 50.464 163.566 50.896C164.19 51.328 165.114 51.544 166.338 51.544C167.682 51.544 169.038 51.208 170.406 50.536C171.798 49.864 173.046 48.844 174.15 47.476C174.438 47.14 174.762 46.972 175.122 46.972ZM189.245 46.972C189.557 46.972 189.797 47.116 189.965 47.404C190.157 47.692 190.253 48.088 190.253 48.592C190.253 49.552 190.025 50.296 189.569 50.824C188.681 51.904 187.421 52.9 185.789 53.812C184.181 54.724 182.453 55.18 180.605 55.18C178.085 55.18 176.129 54.496 174.737 53.128C173.345 51.76 172.649 49.888 172.649 47.512C172.649 45.856 172.997 44.32 173.693 42.904C174.389 41.464 175.349 40.324 176.573 39.484C177.821 38.644 179.225 38.224 180.785 38.224C182.177 38.224 183.293 38.644 184.133 39.484C184.973 40.3 185.393 41.416 185.393 42.832C185.393 44.488 184.793 45.916 183.593 47.116C182.417 48.292 180.413 49.228 177.581 49.924C178.181 51.028 179.321 51.58 181.001 51.58C182.081 51.58 183.305 51.208 184.673 50.464C186.065 49.696 187.265 48.7 188.273 47.476C188.561 47.14 188.885 46.972 189.245 46.972ZM180.173 41.752C179.285 41.752 178.529 42.268 177.905 43.3C177.305 44.332 177.005 45.58 177.005 47.044V47.116C178.421 46.78 179.537 46.276 180.353 45.604C181.169 44.932 181.577 44.152 181.577 43.264C181.577 42.808 181.445 42.448 181.181 42.184C180.941 41.896 180.605 41.752 180.173 41.752ZM201.866 43.156C202.394 43.156 202.838 43.348 203.198 43.732C203.582 44.092 203.774 44.548 203.774 45.1C203.774 45.412 203.702 45.748 203.558 46.108C203.174 46.996 202.634 47.74 201.938 48.34C201.242 48.94 200.474 49.24 199.634 49.24C198.962 49.24 198.386 49 197.906 48.52C197.45 48.04 197.222 47.392 197.222 46.576C197.222 46.12 197.246 45.628 197.294 45.1C197.342 44.716 197.366 44.452 197.366 44.308C197.366 44.116 197.318 43.972 197.222 43.876C197.15 43.78 197.054 43.732 196.934 43.732C196.598 43.732 196.142 44.14 195.566 44.956C194.99 45.748 194.414 46.804 193.838 48.124C193.262 49.444 192.794 50.836 192.434 52.3C192.17 53.452 191.87 54.22 191.534 54.604C191.198 54.988 190.646 55.18 189.878 55.18C188.966 55.18 188.318 54.7 187.934 53.74C187.574 52.78 187.394 51.244 187.394 49.132C187.394 46.012 187.838 43.048 188.726 40.24C188.942 39.544 189.29 39.04 189.77 38.728C190.274 38.392 190.97 38.224 191.858 38.224C192.338 38.224 192.674 38.284 192.866 38.404C193.058 38.524 193.154 38.752 193.154 39.088C193.154 39.472 192.974 40.336 192.614 41.68C192.374 42.64 192.182 43.48 192.038 44.2C191.894 44.92 191.774 45.808 191.678 46.864C192.47 44.8 193.358 43.12 194.342 41.824C195.326 40.528 196.286 39.604 197.222 39.052C198.158 38.5 199.01 38.224 199.778 38.224C200.474 38.224 201.002 38.428 201.362 38.836C201.746 39.22 201.938 39.796 201.938 40.564C201.938 41.02 201.806 41.884 201.542 43.156H201.866Z" fill="#CF052D"/>
<path d="M15 52.5C15 55.2625 12.2 57.5 8.75 57.5C5.3 57.5 2.5 55.2625 2.5 52.5C2.5 49.74 5.3 47.5 8.75 47.5C12.2 47.5 15 49.74 15 52.5ZM37.5 47.5C37.5 50.2625 34.7 52.5 31.25 52.5C27.8 52.5 25 50.2625 25 47.5C25 44.7375 27.8 42.5 31.25 42.5C34.7 42.5 37.5 44.7375 37.5 47.5Z" fill="#CF052D"/>
<path fill-rule="evenodd" clip-rule="evenodd" d="M35 47.5V25H37.5V47.5H35ZM15 27.5V52.5H12.5V27.5H15Z" fill="#CF052D"/>
<path d="M12.5 27.2625C12.5 26.6427 12.7302 26.045 13.1459 25.5854C13.5617 25.1258 14.1333 24.837 14.75 24.775L34.75 22.775C35.0976 22.74 35.4487 22.7784 35.7807 22.8875C36.1126 22.9966 36.4179 23.174 36.6771 23.4084C36.9362 23.6428 37.1433 23.9289 37.285 24.2482C37.4268 24.5676 37.5 24.9131 37.5 25.2625V27.5L12.5 30V27.2625Z" fill="#CF052D"/>
</svg>
