<svg width="20" height="22" viewBox="0 0 20 22" fill="none" xmlns="http://www.w3.org/2000/svg">
<path d="M3.66667 0C4.63913 0 5.57176 0.386309 6.25939 1.07394C6.94703 1.76158 7.33333 2.69421 7.33333 3.66667V18.3333C7.33333 19.3058 6.94703 20.2384 6.25939 20.9261C5.57176 21.6137 4.63913 22 3.66667 22C2.69421 22 1.76157 21.6137 1.07394 20.9261C0.386308 20.2384 2.04931e-08 19.3058 0 18.3333V3.66667C0 2.69421 0.386308 1.76158 1.07394 1.07394C1.76157 0.386309 2.69421 0 3.66667 0ZM15.8889 0C16.8613 0 17.794 0.386309 18.4816 1.07394C19.1692 1.76158 19.5556 2.69421 19.5556 3.66667V18.3333C19.5556 19.3058 19.1692 20.2384 18.4816 20.9261C17.794 21.6137 16.8613 22 15.8889 22C14.9164 22 13.9838 21.6137 13.2962 20.9261C12.6085 20.2384 12.2222 19.3058 12.2222 18.3333V3.66667C12.2222 2.69421 12.6085 1.76158 13.2962 1.07394C13.9838 0.386309 14.9164 0 15.8889 0Z" fill="#f4f4f4"/>
</svg>
