<svg width="22" height="22" viewBox="0 0 22 22" fill="none" xmlns="http://www.w3.org/2000/svg">
<path d="M8.25 17.875C8.25 19.3944 6.71 20.625 4.8125 20.625C2.915 20.625 1.375 19.3944 1.375 17.875C1.375 16.357 2.915 15.125 4.8125 15.125C6.71 15.125 8.25 16.357 8.25 17.875ZM20.625 15.125C20.625 16.6444 19.085 17.875 17.1875 17.875C15.29 17.875 13.75 16.6444 13.75 15.125C13.75 13.6056 15.29 12.375 17.1875 12.375C19.085 12.375 20.625 13.6056 20.625 15.125Z" fill="#F4F4F4"/>
<path fill-rule="evenodd" clip-rule="evenodd" d="M19.25 15.125V2.75H20.625V15.125H19.25ZM8.25 4.125V17.875H6.875V4.125H8.25Z" fill="#F4F4F4"/>
<path d="M6.875 3.99437C6.875 3.6535 7.00161 3.32477 7.23027 3.07198C7.45893 2.81918 7.77334 2.66033 8.1125 2.62624L19.1125 1.52624C19.3037 1.50702 19.4968 1.5281 19.6794 1.58811C19.8619 1.64811 20.0299 1.74572 20.1724 1.87463C20.3149 2.00354 20.4288 2.16089 20.5068 2.33653C20.5847 2.51217 20.625 2.7022 20.625 2.89437V4.12499L6.875 5.49999V3.99437Z" fill="#F4F4F4"/>
</svg>
