<svg width="25" height="22" viewBox="0 0 25 22" fill="none" xmlns="http://www.w3.org/2000/svg">
<path d="M13.0208 21.6739C12.6877 21.6737 12.3635 21.5667 12.0957 21.3686L12.0527 21.3354L6.09831 16.4526H1.5625C1.1481 16.4526 0.750671 16.288 0.457645 15.9949C0.16462 15.7019 0 15.3045 0 14.8901V7.59908C0 7.18468 0.16462 6.78725 0.457645 6.49422C0.750671 6.2012 1.1481 6.03658 1.5625 6.03658H6.097L12.0514 1.15376L12.0944 1.12056C12.3272 0.94916 12.603 0.845699 12.891 0.821685C13.1791 0.797672 13.4682 0.854047 13.7262 0.98454C13.9841 1.11503 14.2008 1.31453 14.3521 1.56083C14.5035 1.80714 14.5835 2.0906 14.5833 2.37968V20.1101C14.5833 20.5245 14.4187 20.922 14.1257 21.215C13.8327 21.508 13.4352 21.6726 13.0208 21.6726V21.6739ZM18.75 16.4532C18.5723 16.4531 18.3976 16.4076 18.2425 16.321C18.0874 16.2343 17.9571 16.1094 17.8638 15.9582C17.7706 15.807 17.7176 15.6344 17.7099 15.4569C17.7021 15.2794 17.7399 15.1029 17.8197 14.9441C18.4375 13.7137 18.7507 12.4702 18.7507 11.2449C18.7507 9.98449 18.4473 8.77616 17.8229 7.55155C17.7033 7.30617 17.6848 7.02363 17.7714 6.76474C17.8579 6.50584 18.0427 6.29128 18.2859 6.16722C18.529 6.04316 18.8112 6.01952 19.0716 6.10138C19.332 6.18324 19.5499 6.36406 19.6784 6.60494C20.4557 8.13033 20.8333 9.6479 20.8333 11.2449C20.8333 12.7963 20.4427 14.3556 19.681 15.879C19.5943 16.0516 19.4613 16.1968 19.2969 16.2982C19.1325 16.3996 18.9432 16.4533 18.75 16.4532Z" fill="white"/>
<path d="M21.875 19.5782C21.6921 19.5784 21.5123 19.5304 21.3539 19.439C21.1954 19.3477 21.0638 19.2162 20.9722 19.0578C20.8807 18.8994 20.8325 18.7197 20.8325 18.5368C20.8324 18.3539 20.8806 18.1742 20.972 18.0157C22.2005 15.8706 22.9167 14.0737 22.9167 11.2449C22.9167 8.3725 22.2044 6.58865 20.9746 4.47732C20.8477 4.23925 20.8181 3.96123 20.892 3.70177C20.9659 3.44231 21.1376 3.22166 21.371 3.08625C21.6043 2.95085 21.8811 2.91126 22.1431 2.97583C22.405 3.04039 22.6317 3.20406 22.7754 3.43239C24.1484 5.78656 25 7.91677 25 11.2449C25 14.5235 24.1498 16.6642 22.7787 19.0574C22.6871 19.216 22.5554 19.3476 22.3967 19.4391C22.2381 19.5305 22.0581 19.5785 21.875 19.5782Z" fill="white"/>
</svg>
